<?xml version="1.0" encoding="UTF-8" standalone="no"?>
<!-- Created with Inkscape (http://www.inkscape.org/) -->

<svg
   width="512"
   height="512"
   viewBox="0 0 135.46666 135.46667"
   version="1.1"
   id="svg5"
   inkscape:version="1.2.2 (b0a8486541, 2022-12-01)"
   sodipodi:docname="icon.svg"
   inkscape:export-filename="icon.png"
   inkscape:export-xdpi="96"
   inkscape:export-ydpi="96"
   xmlns:inkscape="http://www.inkscape.org/namespaces/inkscape"
   xmlns:sodipodi="http://sodipodi.sourceforge.net/DTD/sodipodi-0.dtd"
   xmlns:xlink="http://www.w3.org/1999/xlink"
   xmlns="http://www.w3.org/2000/svg"
   xmlns:svg="http://www.w3.org/2000/svg">
  <sodipodi:namedview
     id="namedview7"
     pagecolor="#505050"
     bordercolor="#eeeeee"
     borderopacity="1"
     inkscape:showpageshadow="0"
     inkscape:pageopacity="0"
     inkscape:pagecheckerboard="true"
     inkscape:deskcolor="#505050"
     inkscape:document-units="mm"
     showgrid="false"
     inkscape:zoom="2.1946698"
     inkscape:cx="231.01425"
     inkscape:cy="209.82656"
     inkscape:window-width="2560"
     inkscape:window-height="1398"
     inkscape:window-x="1080"
     inkscape:window-y="480"
     inkscape:window-maximized="1"
     inkscape:current-layer="g858" />
  <defs
     id="defs2">
    <rect
       x="313.65201"
       y="471.68639"
       width="16.548564"
       height="19.300477"
       id="rect284" />
  </defs>
  <g
     inkscape:label="Layer 1"
     inkscape:groupmode="layer"
     id="layer1">
    <g
       id="g858"
       transform="matrix(1.5324705,0,0,1.5324705,-36.068879,-43.609498)">
      <ellipse
         style="fill:#b751b5;fill-opacity:1;stroke:none;stroke-width:0.23035"
         id="path1209-3-6-5"
         cx="67.733337"
         cy="67.73333"
         rx="33.751495"
         ry="33.751492" />
      <path
         id="path1209-3"
         style="fill:#b26caf;fill-opacity:1;stroke:none;stroke-width:0.23035"
         d="M 88.646269,41.242444 A 33.751495,33.751492 0 0 1 96.286112,62.624084 33.751495,33.751492 0 0 1 62.534684,96.375513 33.751495,33.751492 0 0 1 41.646037,89.12686 33.751495,33.751492 0 0 0 67.733333,101.48476 33.751495,33.751492 0 0 0 101.48476,67.733333 33.751495,33.751492 0 0 0 88.646269,41.242444 Z" />
      <g
         id="g4477"
         transform="translate(-12.576511,57.942754)">
        <g
           id="g4545"
           transform="translate(-26.877855,-4.0919005)">
          <ellipse
             style="fill:#331d33;fill-opacity:1;stroke:none;stroke-width:0.102516"
             id="path1209-3-6-5-3"
             cx="93.244232"
             cy="42.457966"
             rx="15.020893"
             ry="15.020891" />
          <path
             id="path1209-3-5"
             style="fill:#452644;fill-opacity:1;stroke:none;stroke-width:0.102516"
             d="m 102.5514,30.668364 a 15.020893,15.020891 0 0 1 3.40007,9.51576 15.020893,15.020891 0 0 1 -15.020862,15.02087 15.020893,15.020891 0 0 1 -9.29637,-3.22597 15.020893,15.020891 0 0 0 11.60999,5.49981 15.020893,15.020891 0 0 0 15.020862,-15.02087 15.020893,15.020891 0 0 0 -5.71369,-11.7896 z" />
        </g>
      </g>
      <text
         xml:space="preserve"
         style="font-style:normal;font-variant:normal;font-weight:normal;font-stretch:normal;font-size:7.36646px;font-family:'Roboto Mono';-inkscape-font-specification:'Roboto Mono';fill:#ffffff;stroke-width:0.172651"
         id="text551"
         transform="rotate(180,67.452339,67.614861)"><textPath
           xlink:href="#path1209-3-6-5"
           id="textPath557"><tspan
             id="tspan549"
             style="font-style:normal;font-variant:normal;font-weight:normal;font-stretch:normal;font-size:7.36646px;font-family:'Roboto Mono';-inkscape-font-specification:'Roboto Mono';stroke-width:0.172651">COSMOGRAPHER</tspan></textPath></text>
    </g>
    <text
       xml:space="preserve"
       transform="scale(0.26458333)"
       id="text282"
       style="fill:#000000;white-space:pre;shape-inside:url(#rect284)" />
  </g>
</svg>
